<svg width="38" height="38" viewBox="0 0 38 38" fill="none" xmlns="http://www.w3.org/2000/svg">
<g id="bi:twitter">
<path id="Vector" d="M11.9368 35.6247C26.277 35.6247 34.1216 23.7426 34.1216 13.4564C34.1216 13.1239 34.1216 12.7867 34.1074 12.4542C35.6346 11.3486 36.9528 9.9798 38 8.41194C36.5734 9.04096 35.0616 9.45553 33.5136 9.64219C35.1441 8.66758 36.3653 7.13412 36.9502 5.32682C35.4183 6.23436 33.7417 6.87145 31.9936 7.21019C30.8184 5.95862 29.2633 5.1295 27.5692 4.85124C25.8751 4.57299 24.1365 4.86113 22.6227 5.67104C21.1089 6.48096 19.9044 7.76744 19.1958 9.33121C18.4872 10.895 18.314 12.6488 18.7031 14.3209C15.6031 14.1655 12.5704 13.3602 9.80173 11.9572C7.03302 10.5542 4.59013 8.58495 2.6315 6.17707C1.63718 7.89439 1.33374 9.92577 1.78278 11.8587C2.23183 13.7916 3.39971 15.4812 5.04925 16.5843C3.81316 16.5423 2.60424 16.2104 1.52 15.6153V15.7222C1.52213 17.5212 2.14535 19.2643 3.28433 20.6569C4.4233 22.0494 6.00815 23.006 7.771 23.3649C7.10187 23.5493 6.41067 23.6412 5.71663 23.6381C5.22734 23.6396 4.73903 23.5942 4.25838 23.5027C4.75662 25.0513 5.72677 26.4053 7.03296 27.3751C8.33915 28.3448 9.91594 28.8817 11.5425 28.9106C8.77932 31.0808 5.36608 32.2579 1.8525 32.2522C1.23339 32.2548 0.614705 32.2191 0 32.1453C3.5661 34.4188 7.70758 35.626 11.9368 35.6247Z" fill="#161515"/>
</g>
</svg>
