<svg width="38" height="56" viewBox="0 0 38 56" fill="none" xmlns="http://www.w3.org/2000/svg">
<g id="Group">
<path id="Vector" d="M2.95347 20.9368L6.75386 20.2282V40.2716V40.356L6.82607 40.3998L11.7014 43.357L11.9292 43.4951V43.2287V19.4119L15.8407 18.7019V51.141L2.95347 41.9111V20.9368ZM17.9442 16.5762H17.8112L17.7977 16.4262H17.7942H17.6442V16.4516L15.6026 16.8213L15.6026 16.8213L11.3911 17.5858L11.391 17.5858L9.949 17.8464L9.82568 17.8687V17.994V19.2867V39.939L8.86081 39.3532V20.0511V18.0913V17.9107L8.6833 17.9438L6.50455 18.3504L6.50453 18.3504L2.40417 19.1149L2.4041 19.1149L0.972443 19.3825L0.85 19.4053V19.5299V20.8156V41.9917V42.7457V42.8227L0.912573 42.8676L1.57628 43.3437L1.57637 43.3437L14.7636 52.7885L14.7636 52.7885L17.7068 54.8978L17.9442 55.0679V54.7758V51.4364V18.5222V16.5762Z" fill="#161515" stroke="#161515" stroke-width="0.3"/>
<path id="Vector_2" d="M26.0255 43.0411V43.3072L26.2532 43.1694L31.1389 40.2123L31.2112 40.1685V40.084V24.0577V23.9365L31.0927 23.9111L26.207 22.8616L26.0255 22.8226V23.0083V43.0411ZM20.3744 16.4836L20.2016 16.457V16.6318V18.5222V51.433V54.8037V55.0977L20.4396 54.9251L23.3967 52.7811L23.3968 52.7811L36.4311 43.3363L36.4311 43.3363L37.0879 42.8603L37.1498 42.8153V42.7388V41.9917V20.5272V19.1928V19.0641L37.0225 19.0446L35.525 18.8152L35.5248 18.8152L22.4941 16.8102L22.4941 16.8102L20.3744 16.4836ZM22.3085 51.1356V18.697L35.0429 20.6525V41.9082L22.3085 51.1356ZM29.1077 39.1653L28.1359 39.7521V25.2165L29.1077 25.4263V39.1653Z" fill="#161515" stroke="#161515" stroke-width="0.3"/>
<path id="Vector_3" d="M27.6803 2.55787H27.5303V2.70787V6.91887H23.6187V1.19629V1.04629H23.4687H14.5764H14.4264V1.19629V6.91192H10.3793V2.70787V2.55787H10.2293H1H0.85V2.70787V16.2391V16.4167L1.0251 16.387L19.0143 13.3333L36.9756 16.2968L37.15 16.3256V16.1488V2.70787V2.55787H37H27.6803ZM16.161 8.74088H16.311V8.59088V2.87177H21.7342V8.59435V8.74435H21.8842H29.2614H29.4114V8.59435V4.38335H35.262V14.1684L19.0245 11.48L18.9997 11.4759L18.975 11.48L2.73108 14.2303V4.38335H8.49479V8.59088V8.74088H8.64479H16.161Z" fill="#161515" stroke="#161515" stroke-width="0.3"/>
</g>
</svg>
