<svg width="33" height="32" viewBox="0 0 33 32" fill="none" xmlns="http://www.w3.org/2000/svg">
<g id="majesticons:mail-line">
<path id="Vector" d="M9.83333 12.0001L14.8333 16.0001C15.3063 16.3788 15.8941 16.5851 16.5 16.5851C17.1059 16.5851 17.6937 16.3788 18.1667 16.0001L23.1667 12.0001M28.5 22.6667V9.33341C28.5 8.62617 28.219 7.94789 27.719 7.4478C27.2189 6.9477 26.5406 6.66675 25.8333 6.66675H7.16667C6.45942 6.66675 5.78115 6.9477 5.28105 7.4478C4.78095 7.94789 4.5 8.62617 4.5 9.33341V22.6667C4.5 23.374 4.78095 24.0523 5.28105 24.5524C5.78115 25.0525 6.45942 25.3334 7.16667 25.3334H25.8333C26.5406 25.3334 27.2189 25.0525 27.719 24.5524C28.219 24.0523 28.5 23.374 28.5 22.6667Z" stroke="white" stroke-width="2" stroke-linecap="round" stroke-linejoin="round"/>
</g>
</svg>
